<?xml version="1.0" standalone="no"?>
<!DOCTYPE svg PUBLIC "-//W3C//DTD SVG 20010904//EN"
 "http://www.w3.org/TR/2001/REC-SVG-20010904/DTD/svg10.dtd">
<svg version="1.0" xmlns="http://www.w3.org/2000/svg"
 width="284.000000pt" height="284.000000pt" viewBox="0 0 284.000000 284.000000"
 preserveAspectRatio="xMidYMid meet">

<g transform="translate(0.000000,284.000000) scale(0.100000,-0.100000)"
fill="#000000" stroke="none">
<path d="M1058 2115 c-26 -14 -58 -39 -72 -57 -25 -33 -50 -88 -43 -95 2 -2
21 4 43 13 51 22 125 14 188 -20 61 -32 90 -33 121 -1 35 34 33 76 -5 119 -61
69 -148 85 -232 41z"/>
<path d="M1036 1885 c-55 -19 -94 -61 -111 -119 -20 -67 -19 -112 6 -166 l20
-44 23 50 c28 60 58 86 134 114 31 12 67 31 80 42 38 37 25 95 -28 123 -36 18
-73 18 -124 0z"/>
<path d="M1116 1640 c-86 -76 -87 -181 -4 -276 30 -34 96 -73 125 -74 8 0 7
10 -4 32 -31 61 -29 120 6 191 37 75 38 95 10 131 -30 38 -87 36 -133 -4z"/>
<path d="M1351 1556 c-33 -18 -50 -53 -51 -103 -1 -147 154 -233 305 -169 l40
17 -53 25 c-60 30 -93 68 -116 140 -26 79 -77 116 -125 90z"/>
<path d="M353 986 c-61 -53 -21 -156 61 -156 32 0 86 32 86 51 0 12 -47 12
-55 -1 -9 -14 -48 -13 -63 2 -7 7 -12 24 -12 38 0 14 5 31 12 38 15 15 54 16
63 2 7 -12 55 -14 55 -2 0 5 -10 18 -23 30 -32 30 -87 29 -124 -2z"/>
<path d="M546 984 c-56 -56 -17 -154 61 -154 47 0 72 16 89 56 12 29 12 39 0
68 -26 62 -102 77 -150 30z m106 -39 c16 -35 -3 -75 -35 -75 -30 0 -47 18 -47
50 0 52 61 71 82 25z"/>
<path d="M730 920 c0 -89 0 -90 25 -90 22 0 25 4 26 38 l1 37 15 -37 c22 -52
48 -51 73 5 l19 42 0 -42 c1 -39 3 -43 26 -43 25 0 25 1 25 90 l0 90 -29 0
c-25 0 -31 -6 -51 -55 -12 -30 -26 -53 -30 -50 -4 3 -16 27 -26 55 -16 44 -21
50 -46 50 l-28 0 0 -90z"/>
<path d="M970 920 c0 -89 0 -90 25 -90 22 0 25 4 25 35 0 30 3 35 23 35 33 0
67 28 67 54 0 37 -30 56 -88 56 l-52 0 0 -90z m90 35 c0 -8 -9 -15 -20 -15
-11 0 -20 7 -20 15 0 8 9 15 20 15 11 0 20 -7 20 -15z"/>
<path d="M1175 998 c-11 -29 -55 -162 -55 -165 0 -11 49 0 54 12 3 9 18 15 35
15 16 0 31 -6 35 -15 3 -8 17 -15 30 -15 l25 0 -32 90 c-30 84 -33 90 -60 90
-15 0 -30 -6 -32 -12z m45 -89 c0 -11 -7 -19 -16 -19 -11 0 -14 5 -10 16 3 9
6 20 6 25 0 6 5 7 10 4 6 -3 10 -15 10 -26z"/>
<path d="M1320 920 c0 -83 2 -90 19 -90 17 0 20 8 23 53 l3 52 33 -52 c26 -40
40 -53 58 -53 24 0 24 2 24 90 0 89 0 90 -24 90 -23 0 -25 -5 -28 -47 l-3 -48
-30 47 c-21 34 -37 48 -52 48 -22 0 -23 -3 -23 -90z"/>
<path d="M1530 950 c16 -33 30 -73 30 -90 0 -25 4 -30 25 -30 21 0 25 5 25 30
0 17 14 57 30 90 l30 60 -25 0 c-20 0 -30 -8 -42 -37 l-16 -38 -16 37 c-13 31
-21 38 -44 38 l-27 0 30 -60z"/>
<path d="M1770 920 c0 -83 2 -90 19 -90 17 0 20 8 23 53 l3 52 33 -52 c26 -40
40 -53 58 -53 24 0 24 2 24 90 0 89 0 90 -25 90 -23 0 -25 -3 -25 -52 l0 -53
-32 53 c-24 38 -39 52 -55 52 -22 0 -23 -3 -23 -90z"/>
<path d="M1985 933 c-16 -43 -30 -84 -33 -90 -6 -19 45 -16 52 2 3 9 18 15 35
15 16 0 31 -6 35 -15 3 -8 16 -15 30 -15 l25 0 -31 90 c-28 84 -31 90 -58 90
-25 0 -30 -6 -55 -77z m68 -23 c4 -15 0 -20 -15 -20 -14 0 -18 5 -14 16 3 9 6
20 6 25 0 17 17 1 23 -21z"/>
<path d="M2150 920 c0 -89 0 -90 25 -90 22 0 25 4 26 38 l1 37 15 -37 c22 -52
48 -51 73 5 l19 42 0 -42 c1 -39 3 -43 26 -43 25 0 25 1 25 90 l0 90 -29 0
c-25 0 -31 -6 -51 -55 -12 -30 -26 -53 -30 -50 -4 3 -16 27 -26 55 -16 44 -21
50 -46 50 l-28 0 0 -90z"/>
<path d="M2390 920 l0 -90 55 0 c48 0 55 2 55 20 0 16 -7 20 -30 20 -39 0 -41
27 -2 32 16 2 27 9 27 18 0 9 -11 16 -27 18 -39 5 -37 32 2 32 23 0 30 4 30
20 0 18 -7 20 -55 20 l-55 0 0 -90z"/>
<path d="M935 700 c-8 -14 13 -40 32 -40 8 0 11 -5 8 -11 -4 -6 -13 -8 -21 -5
-8 3 -14 1 -14 -5 0 -6 10 -9 22 -7 30 4 35 34 9 43 -12 3 -21 11 -21 16 0 6
9 7 21 4 15 -5 19 -4 15 4 -9 14 -43 14 -51 1z"/>
<path d="M1022 673 c3 -32 7 -38 28 -40 14 -1 18 0 8 3 -13 4 -18 16 -18 40 0
19 -5 34 -11 34 -6 0 -9 -16 -7 -37z"/>
<path d="M1102 698 c-27 -27 -6 -68 35 -68 29 0 48 33 33 60 -12 22 -49 27
-68 8z m53 -28 c0 -29 -32 -41 -41 -16 -9 24 4 48 23 44 12 -2 18 -12 18 -28z"/>
<path d="M1210 690 c-22 -42 34 -82 68 -48 19 19 14 28 -15 27 -25 0 -26 -1
-8 -9 19 -7 19 -8 2 -15 -23 -9 -40 7 -35 31 3 14 12 18 31 17 15 -1 25 2 22
8 -11 17 -54 10 -65 -11z"/>
<path d="M1331 679 c-15 -44 -15 -44 23 -45 l35 0 -15 34 c-8 19 -14 36 -14
38 0 2 -4 4 -9 4 -5 0 -14 -14 -20 -31z m29 -9 c0 -5 -5 -10 -11 -10 -5 0 -7
5 -4 10 3 6 8 10 11 10 2 0 4 -4 4 -10z"/>
<path d="M1421 668 c2 -31 3 -35 6 -15 4 23 7 26 19 16 18 -14 18 0 0 24 -20
27 -26 21 -25 -25z"/>
<path d="M1469 685 c-1 -14 -2 -30 -3 -37 -1 -6 5 -13 12 -15 8 -3 12 8 12 36
0 44 -19 58 -21 16z"/>
<path d="M1582 670 c0 -25 2 -37 5 -27 2 9 13 17 23 17 10 0 21 -8 23 -17 3
-10 5 2 4 27 0 25 -2 35 -4 23 -2 -13 -11 -23 -19 -23 -8 0 -19 10 -24 23 -7
18 -9 13 -8 -23z"/>
<path d="M1680 670 c0 -35 3 -40 23 -39 16 1 18 2 5 6 -10 2 -18 8 -18 13 0 5
8 14 18 19 16 10 16 10 0 11 -10 0 -18 4 -18 9 0 5 8 12 18 14 13 4 11 5 -5 6
-20 1 -23 -4 -23 -39z"/>
<path d="M1761 668 c1 -24 3 -35 6 -25 5 18 5 18 25 0 20 -18 21 -17 14 4 -4
12 -2 24 3 27 17 11 0 36 -25 36 -22 0 -24 -4 -23 -42z m37 21 c-2 -6 -8 -10
-13 -10 -5 0 -11 4 -13 10 -2 6 4 11 13 11 9 0 15 -5 13 -11z"/>
<path d="M1850 670 c0 -37 2 -40 28 -39 16 1 20 3 10 6 -21 5 -24 29 -5 36 10
4 10 6 0 6 -19 1 -16 19 5 24 10 3 6 5 -10 6 -26 1 -28 -2 -28 -39z"/>
</g>
</svg>
